<?xml version="1.0" encoding="iso-8859-1"?>
<!-- Generator: Adobe Illustrator 16.0.0, SVG Export Plug-In . SVG Version: 6.00 Build 0)  -->
<!DOCTYPE svg PUBLIC "-//W3C//DTD SVG 1.1//EN" "http://www.w3.org/Graphics/SVG/1.1/DTD/svg11.dtd">
<svg version="1.1" id="Layer_1" xmlns="http://www.w3.org/2000/svg" xmlns:xlink="http://www.w3.org/1999/xlink" x="0px" y="0px"
	 width="550.72px" height="515.073px" viewBox="139.728 151.807 550.72 515.073"
	 style="enable-background:new 139.728 151.807 550.72 515.073;" xml:space="preserve">
<g>
	<g id="Floor--inject-3">
		<ellipse style="fill:#29C7AC;" cx="415.728" cy="646.384" rx="274.721" ry="20.496"/>
		<ellipse style="opacity:0.5;fill:#FFFFFF;enable-background:new    ;" cx="415.728" cy="646.384" rx="274.721" ry="20.496"/>
		<line style="fill:none;stroke:#000000;stroke-miterlimit:10;" x1="680.256" y1="622.752" x2="154.672" y2="622.752"/>
	</g>
	<g id="Table--inject-3">
		<path style="fill:#FFFFFF;" d="M581.568,433.28c1.915,4.375,1.915,9.353,0,13.728h48.479c0,0,5.984-1.472,5.984-6.864
			c-0.79-3.029-2.95-5.516-5.84-6.72L581.568,433.28z"/>
		<path style="opacity:0.25;enable-background:new    ;" d="M632.352,434.448c-2.003-0.908-4.212-1.268-6.399-1.04h-4.592h-11.937
			h-23.2c-1.43,0.161-2.873,0.161-4.304,0c0.412,0.902,0.729,1.847,0.944,2.815h48.416v10.465c2.729-0.991,4.612-3.503,4.8-6.4
			c0.073-2.279-1.172-4.396-3.2-5.44L632.352,434.448z"/>
		<path style="fill:#263238;" d="M628.224,448.896H579.52c-0.804,0-1.455-0.652-1.455-1.456c0-0.805,0.651-1.456,1.455-1.456h48.704
			c3.093,0.331,5.869-1.908,6.2-5.001s-1.908-5.868-5.001-6.199c-0.398-0.043-0.8-0.043-1.199,0h-48.271
			c-0.805,0-1.456-0.652-1.456-1.456c0-0.805,0.651-1.456,1.456-1.456h48.271c4.715-0.204,8.702,3.452,8.906,8.167
			c0.203,4.714-3.453,8.701-8.167,8.905c-0.246,0.011-0.493,0.011-0.739,0V448.896z"/>
		<path style="fill:#FFFFFF;" d="M633.696,450.208c-1.913,4.376-1.913,9.352,0,13.728h-48.48c0,0-5.983-1.455-5.983-6.863
			c0.787-3.027,2.949-5.51,5.84-6.704L633.696,450.208z"/>
		<path style="opacity:0.25;enable-background:new    ;" d="M582.896,451.376c2.029-0.914,4.267-1.268,6.479-1.024h4.576h11.936
			l23.216-0.08c1.43,0.169,2.875,0.169,4.305,0c-0.423,0.901-0.745,1.846-0.96,2.816H584v10.48c-2.731-0.988-4.616-3.502-4.8-6.4
			c-0.067-2.273,1.178-4.384,3.2-5.424L582.896,451.376z"/>
		<path style="fill:#263238;" d="M587.04,465.84h48.704c0.809-0.085,1.396-0.809,1.311-1.617c-0.072-0.691-0.619-1.238-1.311-1.311
			H587.04c-3.093,0.331-5.868-1.908-6.199-5.001s1.907-5.868,5-6.199c0.398-0.043,0.801-0.043,1.199,0h48.256
			c0.809,0.085,1.533-0.502,1.617-1.311c0.085-0.809-0.502-1.532-1.311-1.617c-0.102-0.011-0.204-0.011-0.307,0H587.04
			c-4.719-0.289-8.778,3.302-9.067,8.021s3.302,8.778,8.021,9.067c0.349,0.021,0.698,0.021,1.047,0V465.84z"/>
		<path style="fill:#263238;" d="M499.2,428.64l3.2-5.664h-23.185l3.28,5.664c-4.592,4-9.376,9.601-9.376,16
			c0,12.112,7.92,21.937,17.68,21.937s17.681-9.824,17.681-21.937C508.48,438.304,503.696,432.64,499.2,428.64z"/>
		<path style="fill:#263238;" d="M532.8,436.064l2.641-4.561H516.8l2.641,4.561c-3.696,3.199-7.536,7.76-7.536,12.8
			c0,9.744,6.399,17.6,14.224,17.6s14.208-7.904,14.208-17.6C540.384,443.824,536.544,439.28,532.8,436.064z"/>
		<path style="fill:#263238;" d="M559.712,442.064l2.112-3.664h-14.96l2.111,3.664c-2.976,2.575-6.048,6.239-6.048,10.304
			c0,7.824,5.104,14.176,11.408,14.176s11.424-6.4,11.424-14.176C565.76,448.304,562.672,444.64,559.712,442.064z"/>
		<polygon style="fill:#263238;" points="473.824,639.472 469.12,639.472 465.072,562.672 477.872,562.672 		"/>
		<polygon style="fill:#263238;" points="651.744,639.472 647.04,639.472 642.992,562.672 655.792,562.672 		"/>
		<rect x="459.2" y="466.32" style="fill:#29C7AC;" width="201.6" height="105.952"/>
		<rect x="459.2" y="466.32" style="opacity:0.4;fill:#FFFFFF;enable-background:new    ;" width="201.6" height="105.952"/>
		
			<rect x="468.24" y="473.072" style="fill:none;stroke:#263238;stroke-linecap:round;stroke-linejoin:round;" width="183.52" height="92.432"/>
		
			<line style="fill:none;stroke:#263238;stroke-linecap:round;stroke-linejoin:round;" x1="559.408" y1="473.072" x2="559.408" y2="564.672"/>
		<rect x="475.328" y="510.624" style="fill:#263238;" width="4.512" height="19.521"/>
		<rect x="641.248" y="510.624" style="fill:#263238;" width="4.512" height="19.521"/>
	</g>
	<g id="Plant--inject-3">
		<path style="fill:none;stroke:#263238;stroke-linecap:round;stroke-linejoin:round;" d="M259.504,606.8
			c0,0-5.056-4.496-4.496-33.6c0.56-29.104,22.4-67.856,7.296-117.776"/>
		<path style="fill:#29C7AC;" d="M264.544,461.536c0,0-2.24-17.952-10.656-23.552c-8.416-5.601-29.168,0-35.328,14.016
			s0.56,19.072,0.56,19.072c5.016-7.331,13.029-12.056,21.872-12.896C255.568,457.04,264.544,461.536,264.544,461.536z"/>
		<path style="opacity:0.19;enable-background:new    ;" d="M240.992,458.176c13.6-1.056,22.32,2.784,23.424,3.296
			c-2.144-7.264-9.36-13.68-20.064-15.088c-12.896-1.68-25.232,24.688-25.232,24.688
			C224.136,463.741,232.149,459.017,240.992,458.176z"/>
		<path style="fill:#29C7AC;" d="M267.344,498.544c0,0-11.52-13.936-21.632-14.144c-10.112-0.208-24.608,15.647-22.288,30.8
			c2.32,15.151,10.72,15.775,10.72,15.775c0.298-8.875,4.518-17.162,11.52-22.624C257.376,499.584,267.344,498.544,267.344,498.544z
			"/>
		<path style="opacity:0.19;enable-background:new    ;" d="M245.664,508.352c10.928-8.176,20.336-9.6,21.552-9.792
			c-5.728-4.976-15.248-6.512-25.04-1.951c-11.776,5.52-8,34.367-8,34.367C234.466,522.105,238.673,513.82,245.664,508.352z"/>
		<path style="fill:#29C7AC;" d="M264.128,521.6c0,0,11.52-13.936,21.632-14.159c10.112-0.225,24.608,15.663,22.288,30.8
			c-2.32,15.136-10.72,15.792-10.72,15.792c-0.296-8.877-4.516-17.164-11.52-22.624C274.096,522.576,264.128,521.6,264.128,521.6z"
			/>
		<path style="opacity:0.19;enable-background:new    ;" d="M285.808,531.36c-10.928-8.192-20.336-9.601-21.552-9.792
			c5.728-4.977,15.248-6.528,25.024-1.952c11.792,5.504,8,34.368,8,34.368C296.996,545.115,292.794,536.83,285.808,531.36z"/>
		<path style="fill:#29C7AC;" d="M254.592,573.136c0,0,11.52-13.936,21.632-14.144c10.112-0.208,24.608,15.664,22.288,30.8
			c-2.32,15.136-10.72,15.792-10.72,15.792c-0.295-8.881-4.515-17.173-11.52-22.64C264.576,574.176,254.592,573.136,254.592,573.136
			z"/>
		<path style="opacity:0.19;enable-background:new    ;" d="M276.272,582.944c-10.928-8.177-20.336-9.601-21.552-9.776
			c5.728-4.992,15.248-6.528,25.04-1.968c11.776,5.52,8,34.384,8,34.384C287.472,596.709,283.265,588.417,276.272,582.944z"/>
		<path style="fill:#29C7AC;" d="M261.296,541.376c0,0-8.352-10.096-15.664-10.256s-17.84,11.28-16.144,22.32
			c1.696,11.04,7.76,11.424,7.76,11.424c0.215-6.431,3.275-12.433,8.352-16.384C250.155,544.836,255.552,542.394,261.296,541.376z"
			/>
		<path style="opacity:0.19;enable-background:new    ;" d="M245.6,548.48c4.546-3.6,9.9-6.037,15.6-7.104
			c-4.144-3.6-11.04-4.72-18.128-1.408c-8.544,4.032-5.824,24.832-5.824,24.832C237.482,558.393,240.54,552.417,245.6,548.48z"/>
		<path style="fill:#29C7AC;" d="M264.08,461.728c0,0,8.352-10.096,15.68-10.256c7.328-0.16,17.824,11.345,16.144,22.32
			c-1.68,10.976-7.776,11.44-7.776,11.44c-0.208-6.445-3.268-12.466-8.352-16.433C275.214,465.173,269.819,462.742,264.08,461.728z"
			/>
		<path style="opacity:0.19;enable-background:new    ;" d="M279.776,468.8c-4.541-3.605-9.897-6.039-15.6-7.088
			c4.144-3.616,11.04-4.72,18.128-1.424c8.544,4,5.84,24.912,5.84,24.912C287.917,478.765,284.853,472.761,279.776,468.8z"/>
		<path style="fill:#29C7AC;" d="M255.296,577.344c0,0-8.352-10.096-15.68-10.24c-7.328-0.144-17.824,11.345-16.144,22.305
			c1.68,10.96,7.76,11.439,7.76,11.439c0.215-6.43,3.275-12.432,8.352-16.384C244.146,580.818,249.547,578.371,255.296,577.344z"/>
		<path style="opacity:0.19;enable-background:new    ;" d="M239.584,584.464c4.548-3.605,9.909-6.044,15.616-7.104
			c-4.144-3.601-11.056-4.801-18.144-1.408c-8.528,3.983-5.824,24.896-5.824,24.896
			C231.447,594.418,234.507,588.416,239.584,584.464z"/>
		<path style="fill:#263238;stroke:#263238;stroke-linecap:round;stroke-linejoin:round;" d="M235.456,601.744
			c-3.615,4.005-5.636,9.196-5.68,14.592c0,13.313,12.432,24.112,27.76,24.112s27.76-10.8,27.76-24.112
			c-0.044-5.396-2.065-10.587-5.68-14.592H235.456z"/>
	</g>
	<g id="Pictures--inject-3">
		<rect x="247.472" y="154.128" style="fill:#29C7AC;" width="108.8" height="156.8"/>
		<rect x="247.472" y="154.128" style="opacity:0.59;fill:#FFFFFF;enable-background:new    ;" width="108.8" height="156.8"/>
		<rect x="263.008" y="176.528" style="fill:#FFFFFF;" width="77.712" height="112"/>
		<rect x="139.728" y="239.472" style="fill:#29C7AC;" width="75.488" height="108.8"/>
		<rect x="139.728" y="239.472" style="opacity:0.59;fill:#FFFFFF;enable-background:new    ;" width="75.488" height="108.8"/>
		<rect x="150.512" y="255.008" style="fill:#FFFFFF;" width="53.92" height="77.712"/>
		<rect x="442.128" y="289.6" style="fill:#29C7AC;" width="75.488" height="108.8"/>
		<rect x="442.128" y="289.6" style="opacity:0.59;fill:#FFFFFF;enable-background:new    ;" width="75.488" height="108.8"/>
		<rect x="452.912" y="305.136" style="fill:#FFFFFF;" width="53.92" height="77.712"/>
	</g>
	<g id="Character--inject-3">
		<path style="fill:#FFFFFF;stroke:#263238;stroke-linecap:round;stroke-linejoin:round;" d="M560.224,199.616
			c8.272-8.274,8.271-21.688-0.004-29.959c-6.479-6.476-16.386-8.055-24.556-3.913c-10.253-14.395-30.234-17.752-44.629-7.499
			c-8.419,5.997-13.423,15.69-13.436,26.027c0,0.96,0,1.904,0.145,2.848c-15.879-4.729-32.586,4.31-37.314,20.189
			c-4.729,15.879,4.31,32.586,20.188,37.315c2.785,0.83,5.676,1.25,8.582,1.248h0.864c9,15.435,28.81,20.65,44.244,11.65
			c5.358-3.125,9.705-7.724,12.523-13.25c11.423,10.41,29.123,9.589,39.533-1.834c10.41-11.423,9.589-29.123-1.835-39.533
			c-1.328-1.21-2.771-2.291-4.307-3.225V199.616z"/>
		<circle style="fill:#FFFFFF;stroke:#263238;stroke-linecap:round;stroke-linejoin:round;" cx="450.784" cy="257.216" r="6.016"/>
		<path style="fill:#FFFFFF;stroke:#263238;stroke-linecap:round;stroke-linejoin:round;" d="M476.272,244.08
			c0,4.904-3.977,8.88-8.881,8.88c-4.903,0-8.88-3.976-8.88-8.88s3.977-8.88,8.881-8.88l0,0
			C472.297,235.2,476.272,239.176,476.272,244.08z"/>
		<path style="fill:#FFFFFF;stroke:#263238;stroke-linecap:round;stroke-linejoin:round;" d="M438.752,257.216
			c0,1.662-1.347,3.008-3.008,3.008s-3.008-1.347-3.008-3.008c0-1.661,1.347-3.008,3.008-3.008S438.752,255.555,438.752,257.216
			L438.752,257.216z"/>
		<path style="fill:#FFFFFF;stroke:#263238;stroke-linecap:round;stroke-linejoin:round;" d="M379.808,386.176
			c0,0-15.407,36.624-20.607,58.624s-4.8,68-4.8,72s-16,26.4-17.2,39.601c-1.2,13.199-8.8,65.199-10.4,70.8
			c-1.6,5.6-15.2,22.399-14.8,24.399s17.6,0.801,18.8,0.801s3.601-23.601,5.2-27.2c1.6-3.601,25.6-52.4,30-67.601
			c4.4-15.199,6-35.6,6-35.6l25.6-64.8L407.2,519.6c0,0-3.601,31.601-0.8,47.2c2.8,15.601,2.8,81.2,3.199,82.4
			c0.4,1.2,30,1.2,30,1.2s3.2-1.601-2.8-4.801c-1.504-0.8-18.8-10.8-20-12.399c-1.2-1.601,11.601-58.4,12.8-75.601
			C430.8,540.4,429.2,516.4,429.2,516.4s8-44.801,6.399-70.801c-1.6-26-13.199-59.424-13.199-59.424H379.808z"/>
		<path style="fill:#263238;stroke:#263238;stroke-linecap:round;stroke-linejoin:round;" d="M422.4,601.152
			c3.199-16.528,6.688-34.977,7.279-43.553c1.2-17.199-0.399-41.199-0.399-41.199s8-44.801,6.399-70.801
			c-1.6-26-13.279-59.424-13.279-59.424H379.84c0,0-15.439,36.624-20.64,58.624s-4.8,68-4.8,72s-16,26.4-17.2,39.601
			c-0.72,7.855-3.696,29.424-6.32,46.8c4.338,2.282,9.198,3.386,14.096,3.2c7.809-16.528,18.272-39.248,21.024-48.769
			c4.4-15.2,6-35.6,6-35.6l25.6-64.8l9.601,62.399c0,0-3.601,31.601-0.8,47.2c1.088,6.016,1.743,19.504,2.176,33.855
			C413.141,601.48,417.793,601.637,422.4,601.152z"/>
		
			<line style="fill:none;stroke:#FFFFFF;stroke-linecap:round;stroke-linejoin:round;" x1="397.6" y1="457.2" x2="409.6" y2="438.8"/>
		<path style="fill:none;stroke:#FFFFFF;stroke-linecap:round;stroke-linejoin:round;" d="M407.6,391.2L408.4,422
			c0,0,4.8-3.6,5.199-6.4c0.4-2.8-1.199-21.2-1.199-21.2"/>
		<path style="fill:#29C7AC;stroke:#263238;stroke-linecap:round;stroke-linejoin:round;" d="M330.8,652.4
			c0.864,0,2.368-12.416,3.744-20.608c-0.689-1.699-1.688-3.256-2.944-4.592c-2-1.601-5.199,2-5.199,2l-0.561,0.24
			c-3.488,6.911-14.191,20.384-13.84,22.159C312.352,653.376,329.6,652.4,330.8,652.4z"/>
		
			<line style="fill:none;stroke:#263238;stroke-linecap:round;stroke-linejoin:round;" x1="313.6" y1="648.8" x2="331.2" y2="648.8"/>
		<path style="fill:#29C7AC;stroke:#263238;stroke-linecap:round;stroke-linejoin:round;" d="M436.8,645.6
			c-1.504-0.8-18.8-10.8-20-12.399c0,0-3.2,1.6-2.8,3.2c0.248,1.049,0.382,2.122,0.4,3.199l-5.04,0.688
			c0.08,5.264,0.159,8.656,0.239,8.912c0.4,1.2,30,1.2,30,1.2S442.8,648.8,436.8,645.6z"/>
		
			<line style="fill:none;stroke:#263238;stroke-linecap:round;stroke-linejoin:round;" x1="409.6" y1="647.6" x2="439.2" y2="647.6"/>
		<path style="fill:#FFFFFF;stroke:#263238;stroke-linecap:round;stroke-linejoin:round;" d="M339.28,331.456
			c0,0-34.464,40.832-34.16,43.2c0.304,2.368,51.52,26.64,56.16,27.504c4.64,0.864,9.84,2.896,11.872,2.896
			c2.031,0,8.976-4.624,8.976-4.624s11.2,4.049,11.584,2.608s-7.536-3.776-7.536-3.776h10.433c0,0,2.592-0.575,0-1.439
			c-3.343-0.791-6.73-1.373-10.145-1.744l10.433-0.288c0,0,2.896-0.864,0-1.44c-2.896-0.576-9.265-1.168-9.265-1.168l8.384-1.152
			c0,0,1.456-1.744-0.575-1.744c-2.032,0-11.872-0.288-12.801,0C381.712,390.576,376,392,376,392l5.792-3.76
			c0,0-1.744-1.168-2.608-0.576c-0.863,0.592-6.943,4.624-7.248,5.488c-0.304,0.864-4.624,3.488-4.624,3.488
			s-2.896-0.592-5.504-0.88c-2.607-0.288-35.312-27.504-35.312-27.504l30.688-28.944L339.28,331.456z"/>
		<path style="fill:#FFFFFF;stroke:#263238;stroke-linecap:round;stroke-linejoin:round;" d="M422.656,331.744
			c0,0,27.504,19.408,32.432,20.272c4.928,0.864,7.809-8.688,3.2-14.768s-22.88-16.496-22.88-16.496L422.656,331.744z"/>
		<path style="fill:#29C7AC;stroke:#263238;stroke-linecap:round;stroke-linejoin:round;" d="M377.2,305.696
			c0,0-14.48-1.168-20.256,1.44c-5.776,2.608-22.88,24.608-22.88,24.608l18.527,12.448l3.76-1.44c0,0,6.4,13.024,11.584,18.528
			c5.185,5.504,11.297,13.888,11.297,18.24c-0.053,2.233,0.141,4.465,0.575,6.656H422.4l-2.032-18.816c0,0,9.6-12.672,8.992-19.616
			c-0.551-4.607-2.155-9.025-4.688-12.912l14.512-12.64c0,0-4.911-15.632-10.991-17.952c-6.08-2.32-19.984,0-19.984,0
			S387.92,308.88,377.2,305.696z"/>
		<path style="fill:none;stroke:#263238;stroke-linecap:round;stroke-linejoin:round;" d="M373.616,355.84
			c0,0,4.144,6.192,14.063,6.192"/>
		<path style="fill:#263238;stroke:#263238;stroke-linecap:round;stroke-linejoin:round;" d="M361.504,221.744
			c0,0-8.912-4.96-9.6-2.976c-0.688,1.984,3.632,2.976,2.64,3.632c-0.992,0.656-5.616,0.32-5.952,2.304
			c-0.336,1.984,2.977,2.64,0.672,2.976c-2.304,0.336-7.6,0-7.6,2.64c0,2.64,4.288,2.96,3.312,3.952
			c-0.976,0.992-6.271,1.328-6.607,4.944c-0.336,3.616,2.319,3.632,0.656,5.28c-1.664,1.648-4.288,2.976-4.944,6.608
			s0.992,3.952,1.6,5.6c0.608,1.648-2.304,3.632-0.991,7.264c1.312,3.632,4.624,4.288,4.624,5.937c0,1.647-3.297,2.32,0.991,6.608
			c4.288,4.288,7.92,4.288,7.92,4.288s-2.976,3.632-0.991,6.272c1.983,2.64,1.983,0.656,3.296,1.6
			c1.312,0.944-0.656,3.296,1.983,3.952c2.641,0.656,4.624-3.296,5.28-0.336s1.984,6.272,3.632,5.616
			c1.648-0.656,2.96-3.952,3.296-2.976c0.336,0.976,1.984,4.304,3.952,4.304s3.313-1.984,4.624,0
			c1.231,1.894,3.357,3.015,5.616,2.96c1.6-0.336,2.64-2.96,4.288-2.96c1.647,0,4.607,2.304,5.6,1.6s2.32-2.976,4.288-1.6
			s5.952,2.624,6.928,1.312c0.977-1.312-0.319-4.288,1.984-4.288s5.936,0.656,6.272-1.6c0.336-2.256-3.297-4.624,0.655-4.624
			s5.616,0.992,5.616-2.304v-6.272c0,0,1.313,0.656,1.6-1.6c0.42-1.949,1.087-3.836,1.984-5.616c0,0,1.968,2.64,1.968-1.313
			c0-3.952-2.64-5.28-0.319-6.271c2.319-0.992,2.96-0.992,2.96-2.976c-0.138-1.791-0.47-3.562-0.992-5.28
			c1.628-1.124,2.612-2.966,2.64-4.944c0.087-1.705-0.254-3.404-0.992-4.944c0,0,3.313-1.984-0.319-3.632
			c-3.633-1.648-1.601-5.28-1.601-7.264c0-1.984-0.655-2.96-1.983-3.296c-1.328-0.336-1.313-2.304-0.992-3.632
			s-1.6-3.952-3.632-4.288s-2.641-1.312-2.641-2.304c0-0.992,2.32-3.632-0.319-3.632c-2.641,0-4.624-0.336-4.96-1.312
			s-3.296-4.624-5.28-4.624s-4.608-2.64-4.608-2.64c-0.192-1.135-1.169-1.97-2.319-1.984c-1.969,0-3.952-2.96-7.584-2.304
			c-3.633,0.656-5.28,2.64-7.265,1.984c-1.983-0.656-0.319-2.32-2.96-0.992c-2.64,1.328-3.216,2.608-4.128,2.608
			s-0.336-3.312-2.319-0.336c-1.984,2.976-3.297,5.28-3.297,5.28s0.336-2.64-1.6-2.304S360.832,218.432,361.504,221.744z"/>
		<path style="fill:#FFFFFF;stroke:#263238;stroke-linecap:round;stroke-linejoin:round;" d="M385.888,278.48
			c0,0,0.864,19.104,0.576,22.288s-9.264,4.928-9.264,4.928s8.688,17.952,18.815,18.816c10.128,0.864,13.328-19.984,13.328-19.984
			c-2.733,0.317-5.346-1.218-6.399-3.76c-1.744-4.336-1.168-17.6-1.168-17.6L385.888,278.48z"/>
		<path style="fill:#FFFFFF;stroke:#263238;stroke-linecap:round;stroke-linejoin:round;" d="M383.728,243.584
			c0,0-4.111,0.288-3.808,1.76c0.304,1.472,5.584,2.353,1.472,3.824c-4.111,1.472-5.584,1.168-5.296,2.928
			c0.288,1.76,4.704,1.472,1.185,4.416c-3.521,2.944-4.416,2.928-4.416,4.112s1.76,2.048,0.592,3.52s-1.472,1.76-1.168,3.2
			c0.304,1.44,2.64,1.168,2.048,3.521c-0.592,2.352,0.592,4.704,8.224,11.456c7.633,6.752,21.44,10.271,27.601,8.816
			c6.16-1.456,6.752-14.688,5.584-23.792c-1.168-9.104-9.984-20.56-9.984-20.56c-1.798-0.647-3.678-1.04-5.584-1.168
			c-2.352,0-1.76-1.776-4.111-1.776c-2.353,0-2.353,0.592-4.4,0c-2.048-0.592-1.76-2.64-3.521-2.64
			C386.384,241.2,383.728,243.584,383.728,243.584z"/>
		<path style="fill:none;stroke:#263238;stroke-linecap:round;stroke-linejoin:round;" d="M404.88,266.784
			c0.115,1.026-0.331,2.035-1.168,2.64c-1.472,1.184-2.944,1.76-4.704,0.592"/>
		
			<line style="fill:none;stroke:#263238;stroke-linecap:round;stroke-linejoin:round;" x1="406.048" y1="274.128" x2="409.28" y2="271.184"/>
		
			<line style="fill:none;stroke:#263238;stroke-linecap:round;stroke-linejoin:round;" x1="382.272" y1="262.384" x2="391.376" y2="259.744"/>
		<path style="fill:none;stroke:#263238;stroke-linecap:round;stroke-linejoin:round;" d="M398.128,252.688
			c0,0,1.168-5.28,4.992-6.4"/>
		<path style="fill:#263238;" d="M394.304,265.024c0,0.813-0.659,1.472-1.472,1.472s-1.472-0.659-1.472-1.472
			s0.659-1.472,1.472-1.472l0,0C393.645,263.552,394.304,264.211,394.304,265.024z"/>
		<path style="fill:#263238;" d="M405.168,259.44c0.009,0.813-0.643,1.479-1.456,1.488c-0.813,0.009-1.479-0.643-1.487-1.456
			c-0.009-0.813,0.643-1.479,1.455-1.488c0.011,0,0.021,0,0.032,0C404.513,257.993,405.159,258.64,405.168,259.44z"/>
		<path style="fill:#FFFFFF;stroke:#263238;stroke-linecap:round;stroke-linejoin:round;" d="M376.624,276.16
			c0,0-3.2-4.64-5.504-0.576s4.063,7.168,11.439,6.768L376.624,276.16z"/>
		<path style="fill:#FFFFFF;stroke:#263238;stroke-linecap:round;stroke-linejoin:round;" d="M416.08,291.104
			c0,0-5.888-1.056-6.72,0.624s5.248,3.376,8.624,2.736C421.36,293.824,416.08,291.104,416.08,291.104z"/>
		<path style="fill:#FFFFFF;stroke:#263238;stroke-linecap:round;stroke-linejoin:round;" d="M430.48,307.424
			c-1.725,0.16-3.454-0.245-4.929-1.152c-1.744-1.456-3.472-6.944-3.472-6.944s-2.608,2.304-4.048,1.152
			c-1.44-1.152-4.353-9.264-4.353-9.264l8.112-5.792c-0.506-1.338-1.189-2.603-2.032-3.76c-1.151-1.456-7.536-4.592-6.943-6.4
			c0.592-1.808,9.84,3.76,9.84,3.76s2.031,3.472,2.896,4.624s10.128,21.728,10.128,21.728s25.776,30.688,27.792,33.872
			c2.017,3.184,3.488,9.84,1.168,12.448c-2.319,2.608-5.504,2.608-11.008,0.288C448.128,349.664,430.48,307.424,430.48,307.424z"/>
		<path style="fill:none;stroke:#263238;stroke-linecap:round;stroke-linejoin:round;" d="M423.248,288.368
			c0,0-8.416,4.416-8.208,5.888"/>
		<path style="fill:none;stroke:#263238;stroke-linecap:round;stroke-linejoin:round;" d="M424.288,291.52c0,0-8,3.36-8,5.056"/>
		
			<line style="fill:none;stroke:#263238;stroke-linecap:round;stroke-linejoin:round;" x1="421.984" y1="298.672" x2="420.928" y2="297.616"/>
	</g>
</g>
</svg>
